HIERARCHY
ROOT pelvis
{
  OFFSET 0 100 0
  CHANNELS 6 Xposition Yposition Zposition Zrotation Xrotation Yrotation
  JOINT pelvis_right_femur
  {
    OFFSET -10.78128 -3.44521 -0.5502486
    CHANNELS 3 Zrotation Xrotation Yrotation
    JOINT right_femur_tibia
    {
      OFFSET -0.8047443 -44.0398 -0.1307829
      CHANNELS 3 Zrotation Xrotation Yrotation
      JOINT right_tibia_foot
      {
        OFFSET 3.006224 -47.83518 -5
        CHANNELS 3 Zrotation Xrotation Yrotation
        End Site
        {
          OFFSET 0 -5 15
        }
      }
    }
  }
  JOINT pelvis_left_femur
  {
    OFFSET 10.78128 -3.44521 -0.5502486
    CHANNELS 3 Zrotation Xrotation Yrotation
    JOINT left_femur_tibia
    {
      OFFSET 0.8047443 -44.0398 -0.1307829
      CHANNELS 3 Zrotation Xrotation Yrotation
      JOINT left_tibia_foot
      {
        OFFSET -4.370144 -48.10324 -4.275266
        CHANNELS 3 Zrotation Xrotation Yrotation
        End Site
        {
          OFFSET 0 -5 15
        }
      }
    }
  }
  JOINT pelvis_spine1
  {
    OFFSET 0 6.468898 -3.129235
    CHANNELS 3 Zrotation Xrotation Yrotation
    JOINT spine1
    {
      OFFSET 0 23.15396 4.99043
      CHANNELS 3 Zrotation Xrotation Yrotation
      JOINT spine2
      {
        OFFSET 0 20.79997 -5.064912
        CHANNELS 3 Zrotation Xrotation Yrotation
        JOINT neck
        {
          OFFSET 0 14.38658 9.616178
          CHANNELS 3 Zrotation Xrotation Yrotation
          End Site
          {
            OFFSET 0 20 0
          }
        }
      }
      JOINT right_manubrium
      {
        OFFSET -5.722621 16.35077 3.967754
        CHANNELS 3 Zrotation Xrotation Yrotation
        JOINT right_clavicle
        {
          OFFSET -13.16364 1.694482 -4.693211
          CHANNELS 3 Zrotation Xrotation Yrotation
          JOINT right_humerus
          {
            OFFSET -28.5034 -0.3100689 -2.792744
            CHANNELS 3 Zrotation Xrotation Yrotation
            JOINT right_radius
            {
              OFFSET -25.15693 0.02248979 -1.271978
              CHANNELS 3 Zrotation Xrotation Yrotation
              End Site
              {
                OFFSET -15 0 0
              }
            }
          }
        }
      }
      JOINT left_manubrium
      {
        OFFSET 5.722621 16.35077 3.967754
        CHANNELS 3 Zrotation Xrotation Yrotation
        JOINT left_clavicle
        {
          OFFSET 13.16364 1.694482 -4.693211
          CHANNELS 3 Zrotation Xrotation Yrotation
          JOINT left_humerus
          {
            OFFSET 29.39168 -1.063119 -2.237045
            CHANNELS 3 Zrotation Xrotation Yrotation
            JOINT left_radius
            {
              OFFSET 24.59957 -0.9528479 0.9047498
              CHANNELS 3 Zrotation Xrotation Yrotation
              End Site
              {
                OFFSET 15 -0 -0
              }
            }
          }
        }
      }
    }
  }
}
MOTION
Frames: 16
Frame Time: 0.0416666666667
0 103.5113 0 1.711243 -1.576819 -0.2662498 2.273494 -9.59433 9.045075 -2.49559e-08 35.51413 -2.342684e-09 -5.840217 -19.18521 -3.187078 -7.529175 9.672989 -23.93324 1.398004e-07 4.775701 -4.729165e-08 8.992948 -16.00167 28.81419 -4.470238 -5.335978 5.173604 2.351858 9.401571 -7.600911 1.156388 22.75081 6.613626 3.247156 -23.32696 8.608272 6.416994 -20.44718 11.59722 85.05916 35.39805 -19.00072 -1.974436e-08 -4.435622e-09 16.57697 -6.952845 7.682983 4.106094 5.4912 -19.65435 -1.486453 -94.93229 29.46259 23.51923 6.988003e-09 -1.511331e-08 -15.51849 4.341563 18.78051 8.449882
0.2681498 103.6999 1.344877 1.437092 -1.478843 -0.3782493 2.564283 -12.46645 9.009828 -2.283893e-08 38.15901 2.040839e-09 -5.716724 -18.03179 -3.524897 -7.341848 10.62761 -23.72123 1.106045e-07 4.821665 -3.507538e-08 8.386408 -16.69438 27.55412 -4.273908 -4.779274 4.854671 2.377483 9.349637 -7.761957 1.15818 22.60969 6.733036 3.178041 -23.51817 8.816161 6.450526 -20.251 11.58363 85.70654 35.3869 -19.38136 -1.659395e-08 -6.087122e-09 16.54262 -6.958821 8.032771 4.156326 5.275108 -19.55615 -1.749638 -94.83898 29.69471 23.37015 4.622612e-09 -1.140917e-08 -15.76193 4.013293 18.31842 9.058759
0.5466286 103.8919 2.768564 1.090598 -1.161778 -0.3137306 3.022641 -15.71656 8.816603 -1.946182e-08 39.07727 5.24482e-09 -5.741046 -16.56343 -3.660563 -7.081346 11.43692 -23.35165 7.655664e-08 4.934481 -2.286264e-08 7.640368 -17.49721 26.15246 -3.980844 -4.118408 4.520619 2.44108 9.258441 -7.894754 1.157161 22.38603 6.905938 3.204002 -23.85924 9.010547 6.427824 -20.01933 11.56126 86.22205 35.37875 -19.7333 -1.157343e-08 -6.878057e-09 16.39478 -7.076016 8.334012 4.330819 5.187815 -19.51457 -1.996368 -94.69374 29.78563 23.12354 2.57227e-09 -7.725903e-09 -16.1905 3.830669 17.80586 9.503671
0.8275558 104.0107 4.363588 0.7230628 -0.6152112 -0.11399 3.577652 -19.091 8.47096 -1.509547e-08 38.0728 7.426202e-09 -5.822038 -14.76657 -3.546102 -6.812033 12.11764 -22.84092 4.264956e-08 5.123975 -1.398716e-08 6.810119 -18.41087 24.75453 -3.635948 -3.442034 4.216564 2.530084 9.129294 -7.98923 1.159118 22.10196 7.143172 3.348041 -24.33996 9.192424 6.352012 -19.74287 11.52525 86.64302 35.37417 -20.10084 -5.769906e-09 -6.130089e-09 16.10931 -7.379153 8.568383 4.635272 5.27507 -19.55031 -2.194185 -94.53432 29.70686 22.73815 1.362759e-09 -4.661275e-09 -16.8934 3.812243 17.26118 9.756495
1.094322 103.968 6.143915 0.38179 0.0557848 0.1609223 4.186392 -22.44819 8.057224 -1.069767e-08 35.16987 8.811348e-09 -5.929235 -12.85809 -3.232884 -6.575087 12.66768 -22.25196 1.079388e-08 5.447964 -8.605292e-09 6.024897 -19.42489 23.56398 -3.284723 -2.776872 3.967925 2.641858 8.995823 -8.046383 1.1593 21.77797 7.432237 3.599672 -24.87745 9.345315 6.25368 -19.41936 11.4917 86.85656 35.38454 -20.48401 1.201612e-09 -4.382526e-09 15.67746 -7.800893 8.704674 4.995975 5.543254 -19.6832 -2.343599 -94.25855 29.49458 22.13588 1.174815e-09 -2.623541e-09 -17.8959 3.939725 16.7271 9.798489
1.338663 103.7272 8.168689 0.05068133 0.8566737 0.460622 4.802751 -25.48012 7.597723 -5.927673e-09 30.95261 9.335243e-09 -6.078781 -10.8733 -2.748031 -6.355949 13.07356 -21.60113 -1.651064e-08 5.937501 -6.505277e-09 5.227724 -20.35979 22.47524 -2.925756 -2.195734 3.775311 2.766544 8.842457 -8.06673 1.162787 21.40946 7.735374 3.921892 -25.46029 9.461498 6.137624 -19.06846 11.44257 86.8785 35.41477 -20.82929 8.064505e-09 -1.594897e-09 15.14934 -8.300367 8.769025 5.40409 5.914751 -19.84864 -2.42144 -93.92567 29.16483 21.47009 1.733523e-09 -1.476533e-09 -18.99916 4.162963 16.20309 9.70164
1.556083 103.2968 10.54157 -0.2934844 1.733266 0.758167 5.395706 -28.01353 7.117545 -6.093638e-10 26.18284 9.004458e-09 -6.269866 -8.993765 -2.216885 -6.103322 13.4567 -20.88902 -3.728662e-08 6.680472 -6.113439e-09 4.321903 -21.02225 21.30374 -2.549207 -1.756852 3.6109 2.899905 8.650807 -8.078171 1.179328 21.02346 7.986236 4.232635 -26.02623 9.533835 5.988701 -18.69102 11.3568 86.86684 35.42546 -21.16561 1.328906e-08 1.846316e-09 14.55026 -8.798162 8.83124 5.808115 6.289306 -20.00478 -2.429561 -93.55665 28.76094 20.80147 2.417287e-09 -7.618544e-10 -20.05997 4.432026 15.69256 9.533707
1.744588 102.7285 13.34591 -0.6470299 2.526376 1.051102 5.920849 -29.89816 6.685303 4.775956e-09 21.96244 8.081601e-09 -6.48031 -7.525171 -1.821539 -5.795809 13.85225 -20.15833 -5.146914e-08 7.857627 -4.691279e-09 3.264718 -21.2594 19.97369 -2.170942 -1.451106 3.446458 3.0265 8.419084 -8.097505 1.216553 20.70853 8.126033 4.442191 -26.47334 9.566391 5.820547 -18.28615 11.23625 87.01126 35.41421 -21.504 1.596797e-08 5.014405e-09 13.92463 -9.192655 8.954104 6.140891 6.551802 -20.10448 -2.388005 -93.21606 28.40138 20.16567 2.560713e-09 1.372102e-10 -20.91838 4.66367 15.21607 9.405136
1.91637 102.1667 16.68742 -1.035666 3.206658 1.359044 6.363046 -30.85057 6.335061 1.069298e-08 19.29872 6.141023e-09 -6.783285 -6.422636 -1.588494 -5.425073 14.22347 -19.43671 -5.83927e-08 9.8569 4.691518e-10 2.022518 -20.77229 18.33031 -1.77147 -1.331484 3.276912 3.137658 8.174043 -8.13654 1.259743 20.45499 8.122972 4.513603 -26.81042 9.534756 5.677334 -17.87839 11.09136 87.32092 35.41807 -21.8175 1.555628e-08 7.29257e-09 13.28794 -9.397052 9.17292 6.36915 6.566811 -20.09141 -2.308663 -92.9258 28.11858 19.77109 1.730849e-09 1.498648e-09 -21.32596 4.821422 14.77692 9.393782
2.087112 101.7901 20.57396 -1.438742 3.666379 1.703156 6.69734 -30.82404 6.10543 1.678073e-08 18.764 2.549237e-09 -7.258051 -5.689441 -1.53677 -5.020934 14.45127 -18.75123 -6.094333e-08 12.86802 1.326951e-08 0.7634968 -19.45482 16.46331 -1.371241 -1.357136 3.099959 3.228819 7.989973 -8.205574 1.273153 20.26028 7.985989 4.442991 -26.99929 9.40496 5.628836 -17.48915 10.96698 87.64968 35.52277 -22.06717 1.367859e-08 7.28442e-09 12.61218 -9.35362 9.488307 6.467244 6.269306 -19.98217 -2.236594 -92.53574 27.93588 19.62819 -2.637222e-10 3.297677e-09 -21.21709 4.905912 14.37705 9.50061
2.274009 101.7262 25.0359 -1.83512 3.853148 2.075004 6.985967 -29.73651 5.98203 2.281291e-08 19.58094 -2.141898e-09 -7.793035 -5.370276 -1.658887 -4.572329 14.22887 -17.97758 -6.097648e-08 17.10328 3.043206e-08 -0.4983693 -17.40341 14.54989 -0.9545078 -1.457126 2.982197 3.28525 7.888748 -8.261397 1.285429 20.15954 7.720316 4.251602 -27.02303 9.192059 5.610608 -17.1588 10.88172 88.07049 35.61197 -22.20748 1.034704e-08 5.93605e-09 12.00758 -9.233212 9.923665 6.499812 5.735705 -19.80407 -2.181611 -92.23318 27.77093 19.74825 -3.034049e-09 5.410495e-09 -20.68283 4.909804 13.97581 9.719284
2.466128 102.066 29.91543 -2.189056 3.703273 2.417692 7.365008 -27.88773 6.018835 2.72506e-08 20.72439 -6.661759e-09 -8.472684 -5.612177 -1.869935 -4.097769 13.25325 -17.0985 -6.532762e-08 23.0732 5.401346e-08 -1.58391 -14.79753 12.84239 -0.501726 -1.493481 2.979951 3.325731 7.949476 -8.282949 1.269264 20.13405 7.373244 4.007407 -26.89599 8.870192 5.647021 -16.90116 10.90632 88.27197 35.70891 -22.22802 8.5184e-09 2.310209e-09 11.4369 -8.964233 10.37038 6.381893 5.049217 -19.66352 -2.194995 -91.84686 27.61532 20.00868 -6.027346e-09 7.378303e-09 -19.97906 4.906034 13.62505 9.914459
2.646707 102.8192 35.06781 -2.361337 3.150359 2.639947 7.703875 -24.97954 6.063301 2.798766e-08 21.41538 -8.659292e-09 -9.081088 -6.443137 -2.110927 -3.691262 11.05969 -15.97679 -7.087916e-08 30.62974 7.526887e-08 -2.402531 -11.98242 11.71106 -0.1169776 -1.401747 3.203824 3.292481 8.170598 -8.190453 1.253658 20.31296 6.99417 3.771486 -26.55713 8.476197 5.664226 -16.72824 11.04897 88.36702 35.76566 -22.04193 6.393732e-09 -1.427792e-09 10.97323 -8.897233 10.79481 6.249333 4.366362 -19.60735 -2.260094 -91.56814 27.40678 20.2221 -8.025423e-09 8.690153e-09 -19.38064 4.929048 13.29983 10.0305
2.79805 103.8978 40.1892 -2.242503 2.250353 2.673325 7.82378 -21.13799 5.992448 2.316226e-08 21.33611 -6.21017e-09 -9.508267 -7.805432 -2.165775 -3.446381 7.259146 -14.70685 -7.942024e-08 38.31379 9.291452e-08 -2.743941 -9.512349 11.46436 0.08137103 -1.089953 3.705159 3.137996 8.542606 -7.911808 1.202682 20.67973 6.704045 3.635505 -26.02294 8.047108 5.679757 -16.73574 11.32604 87.91455 35.87641 -21.34964 5.885924e-09 -5.483413e-09 10.7929 -9.221885 11.05673 6.247849 3.828764 -19.62682 -2.375182 -91.28531 27.15401 20.332 -8.150517e-09 8.802683e-09 -19.07871 4.996772 13.0083 10.02025
2.916508 105.1648 45.16175 -1.849559 1.204416 2.504256 7.639658 -16.53832 5.686753 1.432897e-08 20.43238 -2.114882e-11 -9.586541 -9.243466 -1.968238 -3.336742 2.325599 -13.32253 -8.102668e-08 44.975 9.753576e-08 -2.747198 -7.628389 11.9655 0.05189461 -0.669487 4.426764 2.848272 8.956747 -7.453093 1.148352 21.19522 6.533036 3.617721 -25.35052 7.644261 5.624904 -16.87898 11.64559 87.1199 35.95749 -20.1919 4.738857e-09 -7.695229e-09 10.88259 -10.14434 11.18095 6.527192 3.523919 -19.67439 -2.483179 -91.08022 26.77981 20.26478 -6.198563e-09 7.666616e-09 -19.10752 5.120955 12.68876 9.889349
3.020273 106.4368 49.91133 -1.258313 0.1949015 2.164925 7.130626 -11.5126 5.175174 3.441056e-09 19.0755 7.908827e-09 -9.335902 -10.61508 -1.493485 -3.295873 -3.321026 -11.97541 -7.08427e-08 49.06622 8.609768e-08 -2.400281 -6.46723 13.04971 -0.2174254 -0.2217983 5.270344 2.44946 9.336882 -6.867991 1.075568 21.75279 6.490867 3.693687 -24.61362 7.292794 5.506764 -17.21695 11.9523 85.93825 36.0466 -18.51945 3.060169e-09 -8.126224e-09 11.34547 -11.60356 11.18332 7.158916 3.448235 -19.69242 -2.548528 -90.93382 26.30247 20.155 -2.809025e-09 5.663295e-09 -19.30873 5.258566 12.33565 9.697713
